<svg xmlns="http://www.w3.org/2000/svg" width="122.754" height="19.563" viewBox="0 0 122.754 19.563"><defs><style>.a{fill:#1790df;}</style></defs><g transform="matrix(0.695, 0.719, -0.719, 0.695, 122.864, -327.629)"><path class="a" d="M156.522,307.747a6.088,6.088,0,0,0,11.362,3.111l.855-1.062h-.014l-1.427.072-.213-1.436-.208-1.442h0l-1.434.076-1.436.082-.2-1.446-.2-1.453h0l-1.44.088-1.447.095-.385-2.923-1.261,1.564.195,1.459.2,1.453,1.451-.1,1.445-.094.2,1.446.208,1.442h0v0l1.443-.089,1.436-.082.212,1.435.217,1.432h0l1.411-.076a4.974,4.974,0,0,1-2.656,1.4l-.193-1.24-.217-1.431h0l-1.442.088-1.445.094-.213-1.435-.208-1.443h0v0l-1.448.1-1.457.105-.345-2.479a5.2,5.2,0,0,1,.862-1.564l.342-.423.5-.619A6.137,6.137,0,0,0,156.522,307.747Zm5.233,3.9,1.445-.094.193,1.239a6.193,6.193,0,0,1-3.055-1.048Zm-3.337-2.663,1.453-.1.213,1.435.213,1.4-.362-.26-.093-.073a6.048,6.048,0,0,1-1.816-2.368Z" transform="translate(0 8.049)"/><path class="a" d="M169.135,307.232l-.2-1.446-.178-1.441h0l-1.444.052-1.427.072-.195-1.458-.172-1.446h0v0l-1.448.059-1.438.082-.35-2.9-.5.584-.42.489c-.211.261-.353.447-.353.447l.186,1.469.189,1.465,1.443-.088,1.436-.082.194,1.457.2,1.454h0l1.433-.076,1.427-.072.2,1.446.208,1.443h0l1.423-.065h.014l.9-1.116-.032-.079.262-.3Z" transform="translate(0.594 7.668)"/><path class="a" d="M172.731,304.591l-1.377.038-.167-1.435-.165-1.441h0l-1.45.042-1.451.043-.162-1.44-.161-1.445h0v0l-1.451.046-1.456.049-.315-2.887-1.3,1.506.156,1.433.161,1.444,1.458-.05,1.454-.05.162,1.441.165,1.44h0v0l1.455-.047,1.45-.045.167,1.436.169,1.435h0l1.386-.04Z" transform="translate(0.896 7.297)"/><path class="a" d="M174.976,302.013l-1.365.033-.162-1.441-.161-1.444h0v0l-1.447.038-1.445.04-.159-1.444-.157-1.45h0l-1.447.042-1.452.044-.307-2.9-1.3,1.5.155,1.446.156,1.449,1.454-.047,1.45-.043.159,1.444.161,1.444h0v0l1.45-.042,1.447-.04.162,1.441.164,1.439h0l1.37-.035C174.138,302.98,174.556,302.5,174.976,302.013Z" transform="translate(1.201 6.926)"/><path class="a" d="M177.233,299.432l-1.365.03-.159-1.445-.156-1.449h0l0,0-1.442.033-1.442.035-.155-1.449-.153-1.454h0l-1.442.038-1.449.04-.3-2.913-.595.687,0,0-.7.81.151,1.455.153,1.453,1.45-.042,1.447-.04.155,1.45.156,1.449h0v0l1.445-.038,1.443-.035.159,1.444.161,1.445h0l1.364-.032Z" transform="translate(1.506 6.556)"/><path class="a" d="M176.791,297.757l-.512-.454.512.454Z" transform="translate(2.623 7.457)"/><path class="a" d="M170.457,292.683l1.447-.038,1.442-.035.151,1.454.153,1.453h0l1.442-.033,1.439-.031.154,1.45.157,1.45h0l1.37-.027c.449-.512.876-1,1.293-1.475l-1.381.025-.155-1.45-.153-1.453h0l-1.437.028-1.439.031-.151-1.454-.15-1.458h0l-1.439.033-1.444.035-.291-2.922h0l-.076.088-1.226,1.412.147,1.46Z" transform="translate(1.811 6.186)"/><path class="a" d="M172.6,288.6l.146,1.462,1.441-.033,1.439-.031.147,1.459.15,1.458h0l1.439-.029,1.434-.026.151,1.454.153,1.453h0l1.4-.024q.692-.782,1.308-1.475l-1.426.022-.151-1.454-.15-1.458h0v0l-1.434.025-1.434.026-.147-1.459-.145-1.462h0l-1.435.029-1.441.031-.283-2.93-.016.018-.285.323c-.246.283-.471.546-.7.818l-.3.34v0Z" transform="translate(2.116 5.816)"/><path class="a" d="M175.032,287.44l1.437-.028,1.456-.015.121,1.452.146,1.461h0v0l1.434-.024h1.442l.136,1.435.148,1.458h0l1.428-.019h.014l.295-.318c-.318.355-.632.711-.94,1.063.665-.741,1.241-1.379,1.771-1.961l.161-.176h-.011l-1.43-.036-.13-1.419-.12-1.433h0l-1.442-.025-1.45-.015-.109-1.442-.1-1.454h0l-1.459,0-1.473.008-.168-2.942c-.029.031-.049.056-.079.087l-.119.124-.885.942-.322.351.108,1.46Z" transform="translate(2.425 5.447)"/><path class="a" d="M177.331,283.368l.078,1.477,1.464,0,1.45.014.088,1.465.1,1.454h0v0l1.442.025,1.428.036.11,1.442.12,1.432h0l1.4.048c.536-.578.957-1.027,1.288-1.374l-1.391-.057-.11-1.443-.1-1.454h0v0l-1.419-.047-1.428-.037-.088-1.465-.078-1.477h0l-1.437-.025-1.452-.015-.123-2.986h0l-1.407,1.5h0Z" transform="translate(2.754 5.077)"/><path class="a" d="M187.212,287.038l-.046-1.4-.025-1.422h0v0l-1.422-.151-1.443-.13v-1.441l.022-1.466h0v0l-1.465-.108-1.491-.087.111-2.992v0l-1.58,1.443v.01l-.043,1.477s0,.368-.01.737l.029.748.722.011.751.033,1.488.087,0,1.442s.006.357.01.715l.041.737h0v0l.711.022.731.056,1.443.129.046,1.4.084,1.42h0l.7.033.707.076h0l.011,0,1.33-1.206h-.014Z" transform="translate(3.092 4.719)"/><path class="a" d="M190.9,285.14l-1.348-.211,0-1.443s.025-1.456.051-1.434h0v0h0c-.022-.027-1.4-.222-1.4-.222l-1.4-.171.045-1.484s.072-1.494.094-1.469h0c-.017-.031-1.444-.187-1.444-.187l-1.445-.13s.182-3.091.232-3.031h0a19.709,19.709,0,0,0-1.606,1.394v0l-.093,1.525-.068,1.507,1.468.108,1.443.13-.044,1.484-.022,1.465h0v0l1.422.151,1.4.171,0,1.443.026,1.422h0l1.373.193h0l.011,0h0l1.323-1.213h0Z" transform="translate(3.451 4.37)"/><path class="a" d="M192.1,282.953l.127-1.39.144-1.4h0v0l-1.423-.31-1.438-.3.161-1.416.179-1.431h0v0h0l-1.455-.283-1.475-.27.406-2.877,0-.024-1.706,1.2-.2,1.444-.178,1.431,1.491.256,1.473.27-.161,1.416-.144,1.4,0,0,1.458.284,1.438.3-.127,1.389-.11,1.377h0l1.422.31h0l.012,0,.707-.492.809-.562-.014,0Z" transform="translate(3.814 4.074)"/><path class="a" d="M194.775,281.11l.161-1.416.179-1.431h0v0l-1.387-.334-1.4-.322.2-1.442.215-1.456h0v0h0l-1.42-.309-1.441-.3.477-2.913.006-.035-1.709,1.2,0,.032-.227,1.437-.214,1.456,1.458.284,1.439.3-.2,1.442-.179,1.431h0v0l1.422.31,1.4.322-.161,1.416-.144,1.405h0l1.386.335h0l.012,0,1.512-1.058-.013,0Z" transform="translate(4.206 3.779)"/><path class="a" d="M197.441,279.248l.1-.72.128-.73.256-1.458h0l-1.4-.348-1.381-.347.233-1.457.234-1.444h0l-1.379-.362-1.394-.34.458-2.894-.012.008-1.6,1.084-.007.037-.262,1.455-.251,1.481,1.423.309,1.4.323-.232,1.466-.215,1.455h0v0l1.387.334,1.366.346-.2,1.442-.178,1.431h0l1.349.357h0l.011,0,1.551-1.078-.015,0Z" transform="translate(4.598 3.497)"/><path class="a" d="M201.816,277.593l-1.437-.324.245-1.45.234-1.444h0v0l-1.427-.332-1.414-.339.223-1.434.212-1.429h0v0h0l-1.4-.346-1.394-.355.39-2.832v0l-1.572,1.051v0l-.2,1.419-.212,1.429,1.382.362,1.392.354-.222,1.435-.234,1.444h0v0l1.4.347,1.414.339-.245,1.449-.257,1.459h0l1.426.332h0l.011,0h0l1.7-1.134h0Z" transform="translate(4.983 3.237)"/><path class="a" d="M204.831,275.581l-1.458-.308.222-1.435.212-1.429h0v0l-1.45-.316-1.436-.324.2-1.419.19-1.413h0l-1.424-.331-1.417-.34.347-2.8h0l-1.573,1.049v0l-.178,1.4-.19,1.413,1.4.347,1.414.339-.2,1.419-.212,1.429h0v0l1.427.332,1.436.324-.222,1.435-.234,1.444h0l1.448.316h0l.01,0h0l1.694-1.136h0Z" transform="translate(5.357 2.978)"/><path class="a" d="M207.815,273.407l-1.464-.171.161-1.522.135-1.5h0v0h0l-1.439-.19-1.411-.211.109-1.482.083-1.462h0l-1.383-.232-1.36-.252.086-2.864-.377.318-.939.79-.048.041-.027.718-.079.7-.168,1.4,1.427.332.716.162.684.125-.052.737-.091.7-.19,1.412h0l1.449.316.727.155.71.1s-.038.379-.078.756l-.1.711-.211,1.429h0l1.469.3h0l.012,0,.026-.013a5.153,5.153,0,0,0,.569-.423c.4-.309.743-.6,1.024-.838l.045-.039h-.015Z" transform="translate(5.731 2.704)"/><path class="a" d="M210.765,270.931l-1.512-.125.108-1.483.082-1.464h0v0l-1.488-.146-1.462-.168.057-1.439.033-1.419h0l-1.436-.19-1.414-.212-.01-2.772-.341.283-1.031.857-.006,1.4-.031,1.421,1.387.232,1.411.212-.057,1.44-.083,1.463h0v0l1.439.19,1.462.168-.108,1.483-.134,1.5h0l1.488.148h.015l1.647-1.381h-.015Z" transform="translate(6.079 2.422)"/><path class="a" d="M212.029,268.331l-.006-1.493L212,265.356h0v0l-1.455-.065-1.439-.078-.035-1.467-.048-1.455h0L207.6,262.2l-1.412-.1-.138-2.866v0l-1.012,1-.311.308.063,1.442.042,1.442,1.4.131,1.411.1.035,1.467.01,1.471h0v0l1.437.1,1.439.078.006,1.493-.022,1.5h0l1.463.072h.018l1.075-1.061.4-.4H213.5Z" transform="translate(6.4 2.101)"/><path class="a" d="M216.133,265.788l-1.493-.023-.035-1.467-.062-1.465h0v0l-1.467-.027-1.466-.05-.062-1.439-.086-1.44h0l-1.44-.052-1.441-.078-.2-2.828-1.317,1.322.089,1.414.076,1.428,1.427.091,1.439.078.062,1.439.048,1.455h0v0l1.454.064,1.466.05.035,1.467.021,1.482h0l1.48.037h.015l1.474-1.46h-.015Z" transform="translate(6.71 1.777)"/><path class="a" d="M218.6,263.127l-1.461.027-.105-1.476-.114-1.469h0v0l-1.454.018-1.443.008-.123-1.457-.131-1.449h-1.436l-1.428-.011-.288-2.87-1.271,1.41.14,1.44.131,1.45,1.419.02,1.426.011.122,1.457.114,1.468h0v0h1.436l1.443-.008.105,1.476.1,1.487h0l1.452-.017h.014l1.366-1.514H218.6Z" transform="translate(7.013 1.429)"/><path class="a" d="M221.027,260.445l-1.471.046-.123-1.457-.137-1.454h0v0l-1.465.041-1.46.027-.14-1.438-.153-1.435h0v0l-1.446.022-1.445.008-.326-2.836-1.268,1.414.157,1.42.149,1.43h1.436l1.443-.008.14,1.438.131,1.449h0v0l1.454-.018,1.461-.027.123,1.457L218.2,262h0l1.467-.037h.017l1.365-1.515h-.021Z" transform="translate(7.311 1.081)"/><path class="a" d="M223.352,257.711l-1.454.085-.173-1.464-.179-1.459h0v0l-1.449.078-1.442.07-.185-1.449-.191-1.444h0l-1.434.063-1.431.056-.4-2.865-1.078,1.3-.143.173h0l.2,1.436.192,1.444,1.425-.048,1.429-.055.185,1.449.179,1.459h0v0l1.437-.063,1.442-.07.173,1.464.167,1.473h0l1.448-.077h.015l1.289-1.558h-.014Z" transform="translate(7.603 0.716)"/><path class="a" d="M224.176,255.058l-.185-1.449-.192-1.444h0v0l-1.462.092-1.454.085-.2-1.434-.2-1.429h0v0l-1.447.077-1.443.07-.425-2.835-1.222,1.476.209,1.421.2,1.429,1.437-.063,1.442-.07.2,1.435.192,1.444,0,0,1.449-.077,1.454-.085.185,1.45.179,1.459h0l1.46-.092h.015l1.288-1.559h-.015Z" transform="translate(7.889 0.352)"/><path class="a" d="M226.41,252.3l-.225-1.455-.229-1.45h0v0l-1.444.126-1.438.119-.235-1.442-.239-1.438h0v0l-1.431.113-1.43.107-.494-2.856-1.175,1.525.245,1.432.232,1.431,1.432-.093,1.428-.107.234,1.442.222,1.444h0v0l1.442-.107,1.438-.119.224,1.455.211,1.457h0l1.451-.12h.014l1.23-1.595h-.015Z" transform="translate(8.171 -0.023)"/><path class="a" d="M228.583,249.5l-.235-1.442-.24-1.438h0v0l-1.454.138-1.447.132-.244-1.429-.249-1.425h0v0l-1.441.125-1.439.119-.513-2.831-1.176,1.525.254,1.419.249,1.425,1.435-.113,1.438-.119.244,1.43.24,1.438h0v0l1.444-.126,1.447-.132.234,1.442.23,1.45h0l1.452-.138h.014l1.229-1.6-.015,0Z" transform="translate(8.446 -0.4)"/><path class="a" d="M230.729,246.683l-.268-1.447-.273-1.443h0v0l-1.439.168-1.433.162-.277-1.435-.282-1.43h0v0l-1.427.156-1.426.15-.577-2.843-1.131,1.562.286,1.425.264,1.416,1.439-.13,1.424-.15.277,1.435.255,1.429h0v0l1.449-.142,1.433-.162.268,1.447.245,1.442h0l1.456-.155h.014l1.18-1.629h-.014Z" transform="translate(8.719 -0.783)"/><path class="a" d="M232.538,242.359l-.281-1.43h0l-1.449.18-1.442.173-.285-1.422-.29-1.418h0v0l-1.436.168-1.435.162-.545-2.592a4.783,4.783,0,0,0-.873.911l-.307.424.295,1.412.291,1.419,1.431-.156,1.433-.162.285,1.422.282,1.43h0v0l1.439-.169,1.442-.173.278,1.435.273,1.442h0l1.447-.18h.015l.9-1.249c.079-.123.159-.245.242-.376l-1.432.184Z" transform="translate(8.984 -1.14)"/></g></svg>