<svg xmlns="http://www.w3.org/2000/svg" width="36" height="35.191" viewBox="0 0 36 35.191"><defs><style>.a{fill:#fff;}</style></defs><g transform="translate(-285 -377)"><path class="a" d="M311.194,386.829a1.437,1.437,0,0,0-1.839-.847c-.035.014-3.376,1.209-10.353,1.247a37.661,37.661,0,0,1-10.912-1.53,1.436,1.436,0,0,0-.918,2.721A39.593,39.593,0,0,0,298.8,390.1c.073,0,.147,0,.217,0,7.562-.039,11.19-1.37,11.341-1.426a1.431,1.431,0,0,0,.837-1.842Zm0,0" transform="translate(-0.124 -0.892)"/><path class="a" d="M311.194,391.384a1.431,1.431,0,0,0-1.839-.847c-.035.01-3.376,1.208-10.353,1.246a37.659,37.659,0,0,1-10.912-1.53,1.434,1.434,0,1,0-.918,2.718,39.559,39.559,0,0,0,11.628,1.681h.217c7.562-.041,11.19-1.369,11.341-1.425a1.434,1.434,0,0,0,.837-1.842Zm0,0" transform="translate(-0.124 -1.363)"/><path class="a" d="M309.355,395.087c-.035.014-3.376,1.209-10.353,1.247a38.394,38.394,0,0,1-10.912-1.53,1.434,1.434,0,1,0-.918,2.717A39.594,39.594,0,0,0,298.8,399.2h.217c7.562-.042,11.19-1.369,11.341-1.426a1.435,1.435,0,0,0-1-2.69Zm0,0" transform="translate(-0.124 -1.834)"/><path class="a" d="M287.172,407.119A39.622,39.622,0,0,0,298.8,408.8h.221c7.562-.042,11.187-1.369,11.337-1.426a1.435,1.435,0,0,0-1-2.69c-.035.014-3.376,1.209-10.353,1.247h-.2a37.456,37.456,0,0,1-10.713-1.53,1.434,1.434,0,1,0-.918,2.718Zm0,0" transform="translate(-0.124 -2.826)"/><path class="a" d="M285,380.989a2.424,2.424,0,0,0,1.275,2.087c1.733.707,5.442,1.733,12.345,1.712,6.77.021,10.553-1.029,12.328-1.734a2.388,2.388,0,0,0,1.289-2.062v-1.685a1.225,1.225,0,0,0-.088-.466v-.007c0-1.012-6.059-1.834-13.532-1.834s-13.533.822-13.533,1.834l0,.007a1.154,1.154,0,0,0-.088.463Zm13.62-2.763c2.735,0,4.96.438,4.96.974s-2.224.974-4.96.974-4.959-.435-4.959-.974,2.217-.974,4.959-.974Zm0,0" transform="translate(0 0)"/><path class="a" d="M312.237,411.706v-1.681c0-.792-.575-1.141-1.317-.865a39.346,39.346,0,0,1-24.6,0c-.742-.276-1.317.074-1.317.865v1.681a2.42,2.42,0,0,0,1.275,2.087c1.733.707,5.442,1.734,12.345,1.713,6.77.021,10.553-1.03,12.328-1.738a2.372,2.372,0,0,0,1.289-2.063Zm0,0" transform="translate(0 -3.317)"/><path class="a" d="M314.017,408c.186,3.81,4.553,6.02,5.05,6.259a1.435,1.435,0,0,0,1.247-2.585c-.924-.448-3.344-2.014-3.432-3.814-.354-7.274-4.434-8.367-6.833-8.37h0a1.393,1.393,0,0,0-.568.119.769.769,0,0,0-.123.031c-.035.011-3.376,1.209-10.353,1.244a36.528,36.528,0,0,1-10.912-1.527,1.434,1.434,0,1,0-.918,2.717,39.593,39.593,0,0,0,11.628,1.681c.07,0,.143,0,.217,0,7-.035,10.619-1.176,11.242-1.391,1.071.025,3.5.389,3.758,5.639Zm0,0" transform="translate(-0.124 -2.305)"/></g></svg>