<svg xmlns="http://www.w3.org/2000/svg" width="107.647" height="107.216" viewBox="0 0 107.647 107.216"><defs><style>.a{fill:#0c5fab;}</style></defs><path class="a" d="M433.557,21.577l-.45-.664h0l-.773-1.138h0l-.54-.8-5.026,3.849L423.417,25.4a5.251,5.251,0,0,0-.486-.292l-.066,1.239-1.817-.047-.078,1.876-1.843-.023-.051,1.852-1.868,0-.025,1.826-1.893.03s0,.457.007.913l.058.947-1.809.157.133,1.874-1.833.184L412,37.787,410.149,38l.18,1.819-1.876.242s.049.45.1.9l.164.935-1.779.36.344,1.849-1.8.39.365,1.818-1.818.423.385,1.787-1.836.454.2.882.243.893-1.757.526.512,1.779-1.768.546.527,1.759-1.746.552.552,1.75-1.745.549.55,1.754-1.759.51.519,1.739-1.747.482.506,1.765s-.425.128-.879.222l-.9.189.416,1.74-1.767.346.387,1.787-.871.156-.908.11.249,1.754-1.8.17.212,1.805-1.768.118.079,1.778-1.821.018.048,1.814-1.787-.016-.034,1.805-1.827-.1-.076,1.814-1.8-.119-.117,1.822-1.827-.172-.16,1.813-1.812-.184-.176,1.824-1.834-.229-.22,1.8-1.824-.237-.23,1.806-1.814-.244-.239,1.814-1.805-.251-.249,1.821-1.795-.259-.258,1.828-1.809-.3-.3,1.785-1.187-.21a5.113,5.113,0,0,1-.034-1.845l1.524.27.281-1.8,1.786.265.248-1.821,1.8.259L369,87.6l1.8.251.229-1.807,1.815.245.22-1.8,1.824.237.212-1.792,1.8.2.16-1.813,1.812.184.146-1.8,1.8.151.076-1.814,1.8.119.052-1.792,1.809.084-.048-1.814,1.787.016-.08-1.779,1.822-.017-.205-1.8,1.761-.124-.25-1.755,1.8-.169L391,68.147c-.1-.445-.2-.889-.2-.889l1.735-.3-.417-1.741,1.768-.345-.218-.852-.245-.867,1.732-.457-.52-1.739,1.748-.482-.534-1.718,1.743-.546-.552-1.751,1.745-.548-.553-1.748,1.772-.563-.512-1.78,1.768-.545-.5-1.8.889-.262.925-.239-.386-1.788,1.837-.453-.366-1.819,1.819-.422-.345-1.848,1.8-.391-.322-1.878.892-.183.946-.133-.181-1.819L410.149,38l-.158-1.847,1.855-.213-.133-1.874,1.833-.184-.109-1.9.908-.081.945-.035.024-1.827,1.894-.029.051-1.852,1.868,0,.078-1.876,1.843.023.087-1.6a5.019,5.019,0,0,0-1.864.332,5.562,5.562,0,0,0-1.9,1.2l-.039.037-1.971,1.906L413.4,30.095c-.065-.061-1.793,2.07-1.793,2.07l-1.746,2.114L408.113,36.4l-1.74,2.119c-.07-.052-1.558,2.253-1.558,2.253l-1.5,2.3-1.493,2.3-1.488,2.305c-.059-.017-1.341,2.348-1.341,2.348l-1.278,2.367-1.227,2.324-1.19,2.295s-.3.573-.6,1.147l-.6,1.09-1.2,2.17-.6,1.086a8.969,8.969,0,0,1-.632,1.025l-1.291,1.991s-1.266,2.011-1.326,1.959L387.584,69.3l-1.477,1.829-.485.5a5.072,5.072,0,0,1-.9,1.146c-.024.025-.058.057-.082.082l-.1.1-.1.1c-.423.426-.96.942-1.591,1.529l-.086.081q-.795.738-1.741,1.581l-.076.067q-.864.77-1.81,1.582l-.018.015-.251.216c-.322.276-.651.552-.981.828-.224.188-.447.372-.672.558l0,0,0,0c-.286.236-.572.473-.859.706l0,0c-1.2.976-2.416,1.942-3.574,2.855q-.762.6-1.483,1.166l-.041.032c-.693.542-1.35,1.053-1.954,1.52l-.038.029-.037.03c-.742.573-1.4,1.076-1.939,1.492l-.089.068c-.949.726-1.526,1.162-1.526,1.162l-.014-.056-.474.363-.041.031c-.094.07-.162.161-.249.238a5.384,5.384,0,1,0,6.976,7.669l1.566-1.2,2.1-1.605.076-.058c0,.012,0,.025,0,.037.4-.311.815-.642,1.247-.989q.365-.294.741-.6l.043-.035c.621-.506,1.264-1.038,1.92-1.586l.2-.167q.875-.733,1.765-1.491l.325-.277c.558-.476,1.115-.954,1.665-1.428l.2-.169.2-.177q.813-.7,1.591-1.382c.152-.132.3-.264.453-.4.567-.495,1.111-.973,1.627-1.426l.39-.344c.616-.543,1.18-1.043,1.679-1.486l.319-.283c1.191-1.061,1.932-1.728,1.932-1.728l1.935-2,1.8-2.2,1.779-2.219c.071.042,1.589-2.334,1.589-2.334l1.531-2.367a12.223,12.223,0,0,0,.728-1.186c.328-.594.657-1.187.657-1.187l1.313-2.375s.325-.593.651-1.185l.6-1.158,1.2-2.315,1.2-2.268,1.19-2.2s1.19-2.2,1.233-2.158l1.337-2.052,1.334-2.054,1.33-2.057a23.447,23.447,0,0,1,1.387-2.016l1.564-1.888,1.56-1.89,1.557-1.893a22.633,22.633,0,0,1,1.6-1.856l1.767-1.7,1.764-1.7.035-.034a4.7,4.7,0,0,0,1.119-1.707,5.337,5.337,0,0,0,.351-1.808l-1.482-.079-.025,1.827L422.71,31.9v1.8l-1.817-.048.026,1.774-1.843-.022.032.886.081.92-1.76.1.181,1.819-1.786.129.2,1.79-1.81.157.226,1.761-1.833.185c-.032-.017.275,1.759.306,1.775l-1.736.3.386,1.788-1.758.33.406,1.756-1.779.36.424,1.724-1.8.391.218.85.256.871-1.735.485.535,1.739-1.746.5.545,1.726-1.749.556.549,1.757-1.748.554.548,1.758-1.785.558.491,1.79-1.776.534.477,1.815-.9.254-.925.238.357,1.835-1.828.438.324,1.88-.9.2-.943.158.174,1.854-1.877.267.132,1.9-1.848.21.016,1.848-1.886.087-.019,1.881-1.854.051-.088,1.856-1.875-.052-.125,1.858-1.852-.075-.159,1.857-1.856-.147-.19,1.838-1.841-.16L379.971,89l-1.852-.215L377.88,90.6l-1.842-.223-.249,1.821-1.833-.229L373.7,93.8l-1.824-.238-.267,1.836-1.815-.245L369.516,97l-1.829-.283-.27,1.511a5.184,5.184,0,0,1-1.771-.644l.21-1.175,1.831.308.3-1.811,1.8.251.268-1.835,1.814.244.258-1.828,1.824.238.248-1.821,1.834.229.239-1.814,1.842.223.23-1.807,1.828.174.19-1.838,1.841.16.175-1.826,1.84.116.125-1.858,1.852.075.1-1.837,1.863.033.019-1.881,1.854-.051-.015-1.848,1.885-.087-.125-1.891,1.841-.219-.174-1.852,1.877-.269-.11-.914-.166-.934,1.8-.392-.356-1.834,1.827-.439-.19-.9c-.09-.444-.225-.9-.225-.9l1.761-.507-.491-1.79,1.776-.534-.509-1.765,1.746-.551-.549-1.757,1.748-.554-.551-1.753,1.755-.529-.534-1.738,1.745-.505-.522-1.76.876-.239.907-.207-.424-1.724,1.8-.391-.4-1.756,1.778-.36-.385-1.788,1.757-.33-.365-1.818c-.025-.025,1.769-.282,1.8-.257l-.225-1.761,1.832-.185-.2-1.79,1.809-.157-.18-1.818,1.785-.13-.157-1.847.883-.054c.46-.005.921-.008.921-.008l-.026-1.774,1.843.022v-1.8l1.817.047.025-1.826,1.789.072.051-1.851,1.156.059a5.476,5.476,0,0,0-.245-.59L428.7,25.3Z" transform="translate(-174.157 -277.63) rotate(47)"/></svg>